<?xml version="1.0" encoding="UTF-8" standalone="no"?>
<!DOCTYPE svg PUBLIC "-//W3C//DTD SVG 1.1//EN" "http://www.w3.org/Graphics/SVG/1.1/DTD/svg11.dtd">
<!-- Created with Vectornator (http://vectornator.io/) -->
<svg height="100%" stroke-miterlimit="10" style="fill-rule:nonzero;clip-rule:evenodd;stroke-linecap:round;stroke-linejoin:round;" version="1.1" viewBox="0 0 550 250" width="100%" xml:space="preserve" xmlns="http://www.w3.org/2000/svg" xmlns:vectornator="http://vectornator.io" xmlns:xlink="http://www.w3.org/1999/xlink">
<defs/>
<g id="Layer-1" vectornator:layerName="Layer 1">
<g opacity="1">
<path d="M183.587 115.109C191.846 109.528 280.52 49.6067 280.52 49.6067" fill="none" stroke="#000000" stroke-linecap="round" stroke-linejoin="round" stroke-width="4"/>
<g fill="#000000" stroke="none">
<path d="M185.448 97.5007L180.014 115.655L179.313 117.997L181.748 118.22L200.619 119.951C201.719 120.052 202.692 119.242 202.793 118.142C202.894 117.042 202.084 116.069 200.984 115.968L182.113 114.237L183.846 116.802L189.28 98.6476C189.596 97.5894 188.995 96.4748 187.937 96.1581C186.879 95.8414 185.764 96.4425 185.448 97.5007Z" fill="#000000"/>
</g>
</g>
<g opacity="1">
<path d="M280.365 69.95L280.365 109.95" fill="#ffffff" fill-opacity="0" fill-rule="evenodd" stroke="none"/>
<path d="M280.365 104.79C280.365 100.956 280.365 69.95 280.365 69.95" fill="none" stroke="#000000" stroke-linecap="round" stroke-linejoin="round" stroke-width="4"/>
<g fill="#000000" stroke="none">
<path d="M266.817 93.3902L278.817 108.057L280.365 109.949L281.913 108.057L293.913 93.3903C294.612 92.5354 294.486 91.2753 293.631 90.5759C292.776 89.8764 291.516 90.0024 290.817 90.8573L278.817 105.524L281.913 105.524L269.913 90.8572C269.213 90.0024 267.953 89.8763 267.098 90.5758C266.243 91.2752 266.117 92.5353 266.817 93.3902Z" fill="#000000"/>
</g>
</g>
<g opacity="1">
<path d="M280.52 49.7458L383.857 116.969" fill="#ffffff" fill-opacity="0" fill-rule="evenodd" stroke="none"/>
<path d="M379.531 114.155C371.121 108.684 280.52 49.7458 280.52 49.7458" fill="none" stroke="#000000" stroke-linecap="round" stroke-linejoin="round" stroke-width="4"/>
<g fill="#000000" stroke="none">
<path d="M362.588 119.295L381.425 117.234L383.855 116.968L383.114 114.639L377.363 96.5823C377.028 95.5298 375.903 94.9483 374.85 95.2835C373.798 95.6187 373.216 96.7436 373.552 97.7961L379.302 115.853L380.99 113.258L362.153 115.319C361.055 115.439 360.262 116.426 360.382 117.525C360.502 118.623 361.49 119.415 362.588 119.295Z" fill="#000000"/>
</g>
</g>
<g opacity="1">
<path d="M269.333 19.95C258.234 24.3507 250.365 35.1283 250.365 47.7937C250.365 60.4592 258.235 71.2368 269.333 75.6375C269.923 74.8171 270.365 73.8808 270.365 72.7937L270.365 22.7937C270.365 21.7067 269.923 20.7704 269.333 19.95Z" fill="#00cfec" fill-rule="evenodd" opacity="1" stroke="#ffffff" stroke-linecap="round" stroke-linejoin="round" stroke-opacity="0" stroke-width="4"/>
<path d="M280.365 19.95C277.459 19.95 274.709 20.4918 272.052 21.2625C271.033 22.1778 270.365 23.4725 270.365 24.95L270.365 74.95C270.365 76.4275 271.033 77.7222 272.052 78.6375C274.709 79.4082 277.459 79.95 280.365 79.95C283.27 79.95 286.02 79.4082 288.677 78.6375C289.696 77.7222 290.365 76.4275 290.365 74.95L290.365 24.95C290.365 23.4725 289.696 22.1778 288.677 21.2625C286.02 20.4918 283.27 19.95 280.365 19.95Z" fill="#0033ff" fill-rule="evenodd" opacity="1" stroke="#ffffff" stroke-linecap="round" stroke-linejoin="round" stroke-opacity="0" stroke-width="4"/>
<path d="M291.396 19.95C290.807 20.7704 290.365 21.7067 290.365 22.7937L290.365 72.7937C290.365 73.8808 290.807 74.8171 291.396 75.6375C302.495 71.2368 310.365 60.4592 310.365 47.7937C310.365 35.1283 302.495 24.3507 291.396 19.95Z" fill="#00ffc6" fill-rule="evenodd" opacity="1" stroke="#ffffff" stroke-linecap="round" stroke-linejoin="round" stroke-opacity="0" stroke-width="4"/>
<path d="M250.365 49.95C250.365 33.3815 263.796 19.95 280.365 19.95C296.933 19.95 310.365 33.3815 310.365 49.95C310.365 66.5185 296.933 79.95 280.365 79.95C263.796 79.95 250.365 66.5185 250.365 49.95Z" fill="#ffffff" fill-opacity="0" fill-rule="evenodd" opacity="1" stroke="#000000" stroke-linecap="round" stroke-linejoin="round" stroke-width="4"/>
</g>
<g opacity="1">
<path d="M160.365 149.95L160.365 189.95" fill="#ffffff" fill-opacity="0" fill-rule="evenodd" stroke="none"/>
<path d="M160.365 184.79C160.365 180.956 160.365 149.95 160.365 149.95" fill="none" stroke="#000000" stroke-linecap="round" stroke-linejoin="round" stroke-width="4"/>
<g fill="#000000" stroke="none">
<path d="M146.817 173.39L158.817 188.057L160.365 189.949L161.913 188.057L173.913 173.39C174.612 172.535 174.486 171.275 173.631 170.576C172.776 169.876 171.516 170.002 170.817 170.857L158.817 185.524L161.913 185.524L149.913 170.857C149.213 170.002 147.953 169.876 147.098 170.576C146.243 171.275 146.117 172.535 146.817 173.39Z" fill="#000000"/>
</g>
</g>
<g opacity="1">
<path d="M160.365 129.95L113.851 191.194" fill="#ffffff" fill-opacity="0" fill-rule="evenodd" stroke="none"/>
<path d="M116.972 187.085C121.203 181.514 160.365 129.95 160.365 129.95" fill="none" stroke="#000000" stroke-linecap="round" stroke-linejoin="round" stroke-width="4"/>
<g fill="#000000" stroke="none">
<path d="M113.078 169.813L113.763 188.75L113.852 191.193L116.229 190.623L134.656 186.201C135.73 185.943 136.392 184.863 136.134 183.789C135.876 182.715 134.796 182.053 133.722 182.311L115.295 186.733L117.761 188.606L117.075 169.668C117.035 168.564 116.108 167.702 115.004 167.741C113.9 167.781 113.038 168.709 113.078 169.813Z" fill="#000000"/>
</g>
</g>
<g opacity="1">
<path d="M160.365 129.95L57.437 193.269" fill="#ffffff" fill-opacity="0" fill-rule="evenodd" stroke="none"/>
<path d="M61.8327 190.565C70.2567 185.383 160.365 129.95 160.365 129.95" fill="none" stroke="#000000" stroke-linecap="round" stroke-linejoin="round" stroke-width="4"/>
<g fill="#000000" stroke="none">
<path d="M64.444 173.052L58.2395 190.958L57.4391 193.268L59.8616 193.595L78.6414 196.131C79.736 196.279 80.7432 195.511 80.891 194.417C81.0389 193.322 80.2713 192.315 79.1767 192.167L60.3969 189.631L62.019 192.268L68.2235 174.362C68.5852 173.318 68.0323 172.179 66.9886 171.817C65.9449 171.456 64.8056 172.009 64.444 173.052Z" fill="#000000"/>
</g>
</g>
<g opacity="1">
<path d="M280.365 149.95L280.365 189.95" fill="#ffffff" fill-opacity="0" fill-rule="evenodd" stroke="none"/>
<path d="M280.365 184.79C280.365 180.956 280.365 149.95 280.365 149.95" fill="none" stroke="#000000" stroke-linecap="round" stroke-linejoin="round" stroke-width="4"/>
<g fill="#000000" stroke="none">
<path d="M266.817 173.39L278.817 188.057L280.365 189.949L281.913 188.057L293.913 173.39C294.612 172.535 294.486 171.275 293.631 170.576C292.776 169.876 291.516 170.002 290.817 170.857L278.817 185.524L281.913 185.524L269.913 170.857C269.213 170.002 267.953 169.876 267.098 170.576C266.243 171.275 266.117 172.535 266.817 173.39Z" fill="#000000"/>
</g>
</g>
<g opacity="1">
<path d="M280.365 129.95L231.485 190.136" fill="#ffffff" fill-opacity="0" fill-rule="evenodd" stroke="none"/>
<path d="M234.741 186.127C239.182 180.66 280.365 129.95 280.365 129.95" fill="none" stroke="#000000" stroke-linecap="round" stroke-linejoin="round" stroke-width="4"/>
<g fill="#000000" stroke="none">
<path d="M231.411 168.737L231.48 187.687L231.489 190.131L233.883 189.639L252.445 185.819C253.526 185.596 254.223 184.538 254 183.457C253.778 182.375 252.72 181.678 251.638 181.901L233.077 185.721L235.48 187.673L235.411 168.722C235.407 167.618 234.509 166.726 233.404 166.73C232.299 166.734 231.407 167.632 231.411 168.737Z" fill="#000000"/>
</g>
</g>
<g opacity="1">
<path d="M280.365 129.95L328.353 190.51" fill="#ffffff" fill-opacity="0" fill-rule="evenodd" stroke="none"/>
<path d="M325.149 186.467C320.788 180.963 280.365 129.95 280.365 129.95" fill="none" stroke="#000000" stroke-linecap="round" stroke-linejoin="round" stroke-width="4"/>
<g fill="#000000" stroke="none">
<path d="M307.451 185.946L325.965 189.988L328.353 190.51L328.391 188.066L328.687 169.118C328.705 168.013 327.823 167.104 326.719 167.087C325.615 167.069 324.705 167.951 324.688 169.055L324.392 188.003L326.818 186.08L308.304 182.038C307.225 181.802 306.159 182.486 305.923 183.565C305.688 184.644 306.372 185.71 307.451 185.946Z" fill="#000000"/>
</g>
</g>
<g opacity="1">
<path d="M400.365 129.95L400.365 189.95" fill="#ffffff" fill-opacity="0" fill-rule="evenodd" stroke="none"/>
<path d="M400.365 184.791C400.365 179.123 400.365 129.95 400.365 129.95" fill="none" stroke="#000000" stroke-linecap="round" stroke-linejoin="round" stroke-width="4"/>
<g fill="#000000" stroke="none">
<path d="M386.817 173.391L398.817 188.058L400.365 189.95L401.913 188.058L413.913 173.391C414.612 172.536 414.486 171.276 413.631 170.577C412.776 169.877 411.516 170.003 410.817 170.858L398.817 185.525L401.913 185.525L389.913 170.858C389.213 170.003 387.953 169.877 387.098 170.577C386.243 171.276 386.117 172.536 386.817 173.391Z" fill="#000000"/>
</g>
</g>
<g opacity="1">
<path d="M400.365 129.95L448.637 191.458" fill="#ffffff" fill-opacity="0" fill-rule="evenodd" stroke="none"/>
<path d="M445.449 187.395C441.07 181.817 400.365 129.95 400.365 129.95" fill="none" stroke="#000000" stroke-linecap="round" stroke-linejoin="round" stroke-width="4"/>
<g fill="#000000" stroke="none">
<path d="M427.753 186.792L446.248 190.921L448.633 191.453L448.683 189.009L449.068 170.063C449.09 168.959 448.213 168.045 447.109 168.023C446.005 168 445.091 168.877 445.069 169.982L444.684 188.928L447.119 187.017L428.624 182.888C427.546 182.647 426.477 183.326 426.237 184.404C425.996 185.482 426.675 186.551 427.753 186.792Z" fill="#000000"/>
</g>
</g>
<g opacity="1">
<path d="M400.365 129.95L504.364 193.518" fill="#ffffff" fill-opacity="0" fill-rule="evenodd" stroke="none"/>
<path d="M499.957 190.824C491.463 185.632 400.365 129.95 400.365 129.95" fill="none" stroke="#000000" stroke-linecap="round" stroke-linejoin="round" stroke-width="4"/>
<g fill="#000000" stroke="none">
<path d="M483.164 196.438L501.936 193.848L504.358 193.514L503.551 191.206L497.295 173.319C496.931 172.276 495.79 171.726 494.747 172.091C493.704 172.456 493.155 173.596 493.519 174.639L499.775 192.527L501.39 189.885L482.617 192.475C481.523 192.626 480.758 193.636 480.909 194.73C481.06 195.824 482.07 196.589 483.164 196.438Z" fill="#000000"/>
</g>
</g>
<g opacity="1">
<path d="M260.365 129.95C260.365 118.904 269.319 109.95 280.365 109.95C291.41 109.95 300.365 118.904 300.365 129.95C300.365 140.996 291.41 149.95 280.365 149.95C269.319 149.95 260.365 140.996 260.365 129.95Z" fill="#0028ff" fill-rule="evenodd" opacity="1" stroke="#000000" stroke-linecap="round" stroke-linejoin="round" stroke-width="4"/>
<path d="M260.365 209.95C260.365 198.904 269.319 189.95 280.365 189.95C291.41 189.95 300.365 198.904 300.365 209.95C300.365 220.996 291.41 229.95 280.365 229.95C269.319 229.95 260.365 220.996 260.365 209.95Z" fill="#0028ff" fill-rule="evenodd" opacity="1" stroke="#000000" stroke-linecap="round" stroke-linejoin="round" stroke-width="4"/>
<path d="M320.365 209.95C320.365 198.904 329.319 189.95 340.365 189.95C351.41 189.95 360.365 198.904 360.365 209.95C360.365 220.996 351.41 229.95 340.365 229.95C329.319 229.95 320.365 220.996 320.365 209.95Z" fill="#0028ff" fill-rule="evenodd" opacity="1" stroke="#000000" stroke-linecap="round" stroke-linejoin="round" stroke-width="4"/>
<path d="M200.365 209.95C200.365 198.904 209.319 189.95 220.365 189.95C231.41 189.95 240.365 198.904 240.365 209.95C240.365 220.996 231.41 229.95 220.365 229.95C209.319 229.95 200.365 220.996 200.365 209.95Z" fill="#0028ff" fill-rule="evenodd" opacity="1" stroke="#000000" stroke-linecap="round" stroke-linejoin="round" stroke-width="4"/>
</g>
<g opacity="1">
<path d="M20.3647 209.95C20.3647 198.904 29.319 189.95 40.3647 189.95C51.4104 189.95 60.3647 198.904 60.3647 209.95C60.3647 220.996 51.4104 229.95 40.3647 229.95C29.319 229.95 20.3647 220.996 20.3647 209.95Z" fill="#00cfec" fill-rule="evenodd" opacity="1" stroke="#000000" stroke-linecap="round" stroke-linejoin="round" stroke-width="4"/>
<path d="M80.3647 209.95C80.3647 198.904 89.319 189.95 100.365 189.95C111.41 189.95 120.365 198.904 120.365 209.95C120.365 220.996 111.41 229.95 100.365 229.95C89.319 229.95 80.3647 220.996 80.3647 209.95Z" fill="#00cfec" fill-rule="evenodd" opacity="1" stroke="#000000" stroke-linecap="round" stroke-linejoin="round" stroke-width="4"/>
<path d="M140.365 209.95C140.365 198.904 149.319 189.95 160.365 189.95C171.41 189.95 180.365 198.904 180.365 209.95C180.365 220.996 171.41 229.95 160.365 229.95C149.319 229.95 140.365 220.996 140.365 209.95Z" fill="#00cfec" fill-rule="evenodd" opacity="1" stroke="#000000" stroke-linecap="round" stroke-linejoin="round" stroke-width="4"/>
<path d="M140.365 129.95C140.365 118.904 149.319 109.95 160.365 109.95C171.41 109.95 180.365 118.904 180.365 129.95C180.365 140.996 171.41 149.95 160.365 149.95C149.319 149.95 140.365 140.996 140.365 129.95Z" fill="#00cfec" fill-rule="evenodd" opacity="1" stroke="#000000" stroke-linecap="round" stroke-linejoin="round" stroke-width="4"/>
</g>
<g opacity="1">
<path d="M380.365 209.95C380.365 198.904 389.319 189.95 400.365 189.95C411.41 189.95 420.365 198.904 420.365 209.95C420.365 220.996 411.41 229.95 400.365 229.95C389.319 229.95 380.365 220.996 380.365 209.95Z" fill="#00ffc6" fill-rule="evenodd" opacity="1" stroke="#000000" stroke-linecap="round" stroke-linejoin="round" stroke-width="4"/>
<path d="M440.365 209.95C440.365 198.904 449.319 189.95 460.365 189.95C471.41 189.95 480.365 198.904 480.365 209.95C480.365 220.996 471.41 229.95 460.365 229.95C449.319 229.95 440.365 220.996 440.365 209.95Z" fill="#00ffc6" fill-rule="evenodd" opacity="1" stroke="#000000" stroke-linecap="round" stroke-linejoin="round" stroke-width="4"/>
<path d="M500.365 209.95C500.365 198.904 509.319 189.95 520.365 189.95C531.41 189.95 540.365 198.904 540.365 209.95C540.365 220.996 531.41 229.95 520.365 229.95C509.319 229.95 500.365 220.996 500.365 209.95Z" fill="#00ffc6" fill-rule="evenodd" opacity="1" stroke="#000000" stroke-linecap="round" stroke-linejoin="round" stroke-width="4"/>
<path d="M380.365 129.95C380.365 118.904 389.319 109.95 400.365 109.95C411.41 109.95 420.365 118.904 420.365 129.95C420.365 140.996 411.41 149.95 400.365 149.95C389.319 149.95 380.365 140.996 380.365 129.95Z" fill="#00ffc6" fill-rule="evenodd" opacity="1" stroke="#000000" stroke-linecap="round" stroke-linejoin="round" stroke-width="4"/>
</g>
</g>
</svg>
