<?xml version="1.0" encoding="UTF-8" standalone="no"?>
<!DOCTYPE svg PUBLIC "-//W3C//DTD SVG 1.1//EN" "http://www.w3.org/Graphics/SVG/1.1/DTD/svg11.dtd">
<!-- Created with Vectornator (http://vectornator.io/) -->
<svg height="100%" stroke-miterlimit="10" style="fill-rule:nonzero;clip-rule:evenodd;stroke-linecap:round;stroke-linejoin:round;" version="1.1" viewBox="0 0 500 300" width="100%" xml:space="preserve" xmlns="http://www.w3.org/2000/svg" xmlns:vectornator="http://vectornator.io" xmlns:xlink="http://www.w3.org/1999/xlink">
<defs>
<clipPath id="TextBounds">
<rect height="18.9004" width="108.952" x="350" y="18.1069"/>
</clipPath>
<clipPath id="TextBounds_2">
<rect height="18.9004" width="73.1221" x="350" y="58.1069"/>
</clipPath>
<clipPath id="TextBounds_3">
<rect height="18.9004" width="130.764" x="350" y="98.1069"/>
</clipPath>
<clipPath id="TextBounds_4">
<rect height="18.9004" width="93.6592" x="350" y="138.107"/>
</clipPath>
</defs>
<clipPath id="ArtboardFrame">
<rect height="300" width="500" x="0" y="0"/>
</clipPath>
<g clip-path="url(#ArtboardFrame)" id="Layer-1" vectornator:layerName="Layer 1">
<path d="M136.346 10L203.654 10C207.159 10 210 12.2386 210 15L210 53.1069C210 55.8683 207.159 58.1069 203.654 58.1069L136.346 58.1069C132.841 58.1069 130 55.8683 130 53.1069L130 15C130 12.2386 132.841 10 136.346 10Z" fill="#ff9100" fill-rule="evenodd" opacity="1" stroke="#000000" stroke-linecap="round" stroke-linejoin="round" stroke-width="4"/>
<path d="M150 158.107C150 147.061 158.624 138.107 169.262 138.107C179.9 138.107 188.524 147.061 188.524 158.107C188.524 169.153 179.9 178.107 169.262 178.107C158.624 178.107 150 169.153 150 158.107Z" fill="#14b218" fill-rule="evenodd" opacity="1" stroke="#000000" stroke-linecap="round" stroke-linejoin="round" stroke-width="4"/>
<path d="M30 258.107C30 247.061 38.9543 238.107 50 238.107C61.0457 238.107 70 247.061 70 258.107C70 269.153 61.0457 278.107 50 278.107C38.9543 278.107 30 269.153 30 258.107Z" fill="#0033ff" fill-rule="evenodd" opacity="1" stroke="#000000" stroke-linecap="round" stroke-linejoin="round" stroke-width="4"/>
<path d="M110 258.107C110 247.061 118.954 238.107 130 238.107C141.046 238.107 150 247.061 150 258.107C150 269.153 141.046 278.107 130 278.107C118.954 278.107 110 269.153 110 258.107Z" fill="#0033ff" fill-rule="evenodd" opacity="1" stroke="#000000" stroke-linecap="round" stroke-linejoin="round" stroke-width="4"/>
<path d="M190 258.107C190 247.061 198.954 238.107 210 238.107C221.046 238.107 230 247.061 230 258.107C230 269.153 221.046 278.107 210 278.107C198.954 278.107 190 269.153 190 258.107Z" fill="#0033ff" fill-rule="evenodd" opacity="1" stroke="#000000" stroke-linecap="round" stroke-linejoin="round" stroke-width="4"/>
<path d="M270 258.107C270 247.061 278.954 238.107 290 238.107C301.046 238.107 310 247.061 310 258.107C310 269.153 301.046 278.107 290 278.107C278.954 278.107 270 269.153 270 258.107Z" fill="#0033ff" fill-rule="evenodd" opacity="1" stroke="#000000" stroke-linecap="round" stroke-linejoin="round" stroke-width="4"/>
<g opacity="1">
<path d="M170 132.943C170 125.719 170 58.1069 170 58.1069" fill="none" stroke="#000000" stroke-linecap="round" stroke-linejoin="round" stroke-width="4"/>
<g fill="#000000" stroke="none">
<path d="M156.452 121.543L168.452 136.209L170 138.101L171.548 136.209L183.548 121.543C184.247 120.688 184.121 119.428 183.266 118.728C182.412 118.029 181.152 118.155 180.452 119.01L168.452 133.676L171.548 133.676L159.548 119.01C158.848 118.155 157.588 118.029 156.734 118.728C155.879 119.428 155.753 120.688 156.452 121.543Z" fill="#000000"/>
</g>
</g>
<g opacity="1">
<path d="" fill="none" stroke="#000000" stroke-linecap="round" stroke-linejoin="round" stroke-width="5"/>
<g fill="#000000" stroke="none">
<path d="M-14.2502 16.9349L4.08309 1.93489L6.44796 0L4.08309-1.93489L-14.2502-16.9349C-15.3189-17.8092-16.8939-17.6517-17.7682-16.5831C-18.6425-15.5145-18.485-13.9394-17.4164-13.0651L0.916906 1.93489L0.916906-1.93489L-17.4164 13.0651C-18.485 13.9394-18.6425 15.5145-17.7682 16.5831C-16.8939 17.6517-15.3189 17.8092-14.2502 16.9349Z" fill="#000000"/>
</g>
</g>
<g opacity="1">
<path d="M69.4512 239.829C76.7618 233.745 153.499 169.884 153.499 169.884" fill="none" stroke="#000000" stroke-linecap="round" stroke-linejoin="round" stroke-width="4"/>
<g fill="#000000" stroke="none">
<path d="M69.5478 222.123L65.9503 240.728L65.4862 243.128L67.9306 243.108L86.8801 242.95C87.9847 242.941 88.8726 242.038 88.8634 240.933C88.8542 239.829 87.9513 238.941 86.8468 238.95L67.8972 239.108L69.8775 241.488L73.475 222.882C73.6847 221.798 72.9756 220.749 71.8911 220.539C70.8066 220.329 69.7575 221.038 69.5478 222.123Z" fill="#000000"/>
</g>
</g>
<g opacity="1">
<path d="M138.389 234.525C140.604 228.772 160.285 177.668 160.285 177.668" fill="none" stroke="#000000" stroke-linecap="round" stroke-linejoin="round" stroke-width="4"/>
<g fill="#000000" stroke="none">
<path d="M129.843 219.018L135.77 237.017L136.535 239.339L138.659 238.13L155.129 228.756C156.089 228.209 156.424 226.988 155.877 226.028C155.331 225.068 154.11 224.733 153.15 225.279L136.681 234.653L139.57 235.766L133.642 217.767C133.297 216.717 132.166 216.147 131.117 216.493C130.068 216.838 129.498 217.969 129.843 219.018Z" fill="#000000"/>
</g>
</g>
<g opacity="1">
<path d="M203.201 232.47C200.561 226.836 177.051 176.67 177.051 176.67" fill="none" stroke="#000000" stroke-linecap="round" stroke-linejoin="round" stroke-width="4"/>
<g fill="#000000" stroke="none">
<path d="M186.096 227.896L203.185 236.084L205.39 237.14L205.989 234.77L210.631 216.398C210.901 215.327 210.253 214.239 209.182 213.969C208.111 213.698 207.023 214.347 206.753 215.418L202.111 233.791L204.914 232.477L187.824 224.289C186.828 223.811 185.633 224.232 185.156 225.228C184.679 226.224 185.099 227.419 186.096 227.896Z" fill="#000000"/>
</g>
</g>
<g opacity="1">
<path d="M279.204 236.375C271.186 230.751 185.832 170.882 185.832 170.882" fill="none" stroke="#000000" stroke-linecap="round" stroke-linejoin="round" stroke-width="4"/>
<g fill="#000000" stroke="none">
<path d="M262.091 240.92L280.989 239.518L283.427 239.338L282.767 236.984L277.651 218.737C277.352 217.674 276.248 217.054 275.185 217.352C274.121 217.65 273.501 218.754 273.799 219.817L278.915 238.064L280.693 235.529L261.795 236.931C260.693 237.013 259.867 237.972 259.948 239.074C260.03 240.175 260.989 241.002 262.091 240.92Z" fill="#000000"/>
</g>
</g>
<path d="M315 18.515L325.183 18.515C327.944 18.515 330.183 21.0955 330.183 24.2787L330.183 32.3433C330.183 35.5264 327.944 38.1069 325.183 38.1069L315 38.1069C312.239 38.1069 310 35.5264 310 32.3433L310 24.2787C310 21.0955 312.239 18.515 315 18.515Z" fill="#14b218" fill-rule="evenodd" opacity="1" stroke="none"/>
<path d="M376.828 421.762L378.599 421.762C378.794 421.762 378.953 421.921 378.953 422.117L378.953 422.117C378.953 422.312 378.794 422.471 378.599 422.471L376.828 422.471C376.633 422.471 376.474 422.312 376.474 422.117L376.474 422.117C376.474 421.921 376.633 421.762 376.828 421.762Z" fill="#14b218" fill-rule="evenodd" opacity="1" stroke="none"/>
<path d="M315.043 58.1069L324.957 58.1069C327.742 58.1069 330 61.1908 330 64.9951L330 71.2187C330 75.0229 327.742 78.1069 324.957 78.1069L315.043 78.1069C312.258 78.1069 310 75.0229 310 71.2187L310 64.9951C310 61.1908 312.258 58.1069 315.043 58.1069Z" fill="#ff9100" fill-rule="evenodd" opacity="1" stroke="none"/>
<path d="M315 98.1069L325 98.1069C327.761 98.1069 330 100.345 330 103.107L330 113.107C330 115.868 327.761 118.107 325 118.107L315 118.107C312.239 118.107 310 115.868 310 113.107L310 103.107C310 100.345 312.239 98.1069 315 98.1069Z" fill="#0033ff" fill-rule="evenodd" opacity="1" stroke="none"/>
<g fill="#000000" opacity="1" stroke="none">
<path clip-path="url(#TextBounds)" d="M352.848 32.3891L354.166 32.3891L354.166 27.8115L358.846 27.8115L358.846 26.6396L354.166 26.6396L354.166 23.0068L359.264 23.0068L359.264 21.8203L352.848 21.8203L352.848 32.3891Z" fill-rule="evenodd"/>
<path clip-path="url(#TextBounds)" d="M361.065 32.3891L362.34 32.3891L362.34 24.4936L361.065 24.4936L361.065 32.3891ZM361.71 22.9702C361.954 22.9702 362.162 22.8835 362.333 22.7102C362.503 22.5368 362.589 22.3305 362.589 22.0913C362.589 21.8471 362.503 21.6396 362.333 21.4687C362.162 21.2978 361.954 21.2124 361.71 21.2124C361.471 21.2124 361.264 21.2978 361.091 21.4687C360.918 21.6396 360.831 21.8471 360.831 22.0913C360.831 22.3305 360.918 22.5368 361.091 22.7102C361.264 22.8835 361.471 22.9702 361.71 22.9702Z" fill-rule="evenodd"/>
<path clip-path="url(#TextBounds)" d="M364.508 32.3891L365.782 32.3891L365.782 27.4965C365.782 27.1108 365.871 26.7739 366.05 26.4858C366.228 26.1977 366.473 25.9731 366.786 25.812C367.098 25.6508 367.457 25.5703 367.862 25.5703C368.004 25.5703 368.137 25.5764 368.261 25.5886C368.386 25.6008 368.514 25.6191 368.646 25.6435L368.646 24.4057C368.583 24.3959 368.491 24.385 368.371 24.3728C368.252 24.3605 368.131 24.3544 368.009 24.3544C367.477 24.3544 367.03 24.4692 366.668 24.6987C366.307 24.9282 366.051 25.2504 365.899 25.6655L365.782 25.6655L365.782 24.4936L364.508 24.4936L364.508 32.3891Z" fill-rule="evenodd"/>
<path clip-path="url(#TextBounds)" d="M372.696 32.5283C373.297 32.5283 373.835 32.4282 374.311 32.228C374.787 32.0278 375.165 31.7482 375.443 31.3894C375.721 31.0305 375.86 30.6166 375.86 30.1479L375.86 30.1333C375.86 29.5668 375.678 29.1152 375.315 28.7783C374.951 28.4414 374.398 28.1826 373.656 28.0019L372.44 27.7089C371.976 27.5966 371.639 27.4526 371.429 27.2768C371.219 27.101 371.114 26.8789 371.114 26.6103L371.114 26.5957C371.114 26.3613 371.185 26.1562 371.327 25.9804C371.468 25.8046 371.661 25.6667 371.905 25.5666C372.149 25.4665 372.428 25.4165 372.74 25.4165C373.219 25.4165 373.607 25.5141 373.905 25.7094C374.203 25.9047 374.393 26.1586 374.476 26.4711L374.476 26.4711L375.729 26.4711L375.729 26.4711C375.67 26.0415 375.51 25.6679 375.249 25.3505C374.988 25.0332 374.643 24.7878 374.216 24.6145C373.789 24.4411 373.299 24.3544 372.748 24.3544C372.191 24.3544 371.69 24.4545 371.246 24.6547C370.802 24.8549 370.451 25.1284 370.195 25.475C369.939 25.8217 369.811 26.2148 369.811 26.6542L369.811 26.6616C369.811 27.228 369.984 27.6809 370.331 28.0202C370.677 28.3596 371.219 28.6171 371.957 28.7929L373.18 29.0859C373.668 29.2031 374.02 29.3557 374.234 29.5437C374.449 29.7316 374.557 29.9599 374.557 30.2285L374.557 30.2431C374.557 30.4824 374.479 30.6936 374.322 30.8767C374.166 31.0598 373.952 31.2038 373.681 31.3088C373.41 31.4138 373.097 31.4663 372.74 31.4663C372.237 31.4663 371.83 31.3662 371.517 31.166C371.205 30.9658 370.995 30.7021 370.887 30.375L370.887 30.375L369.583 30.375L369.583 30.375C369.632 30.8095 369.792 31.1879 370.063 31.5102C370.334 31.8325 370.694 32.0827 371.144 32.2609C371.593 32.4392 372.11 32.5283 372.696 32.5283Z" fill-rule="evenodd"/>
<path clip-path="url(#TextBounds)" d="M380.409 32.4477C380.536 32.4477 380.66 32.4404 380.782 32.4257C380.904 32.4111 381.026 32.394 381.148 32.3745L381.148 31.2905C381.031 31.3002 380.932 31.3076 380.852 31.3125C380.771 31.3173 380.675 31.3198 380.562 31.3198C380.152 31.3198 379.859 31.2185 379.684 31.0158C379.508 30.8132 379.42 30.4799 379.42 30.0161L379.42 25.5483L381.148 25.5483L381.148 24.4936L379.42 24.4936L379.42 22.4501L378.102 22.4501L378.102 24.4936L376.856 24.4936L376.856 25.5483L378.102 25.5483L378.102 30.3383C378.102 31.0903 378.283 31.6298 378.647 31.957C379.011 32.2841 379.598 32.4477 380.409 32.4477Z" fill-rule="evenodd"/>
<path clip-path="url(#TextBounds)" d="M389.513 32.5283C390.113 32.5283 390.652 32.4282 391.128 32.228C391.604 32.0278 391.981 31.7482 392.259 31.3894C392.538 31.0305 392.677 30.6166 392.677 30.1479L392.677 30.1333C392.677 29.5668 392.495 29.1152 392.131 28.7783C391.767 28.4414 391.214 28.1826 390.472 28.0019L389.256 27.7089C388.792 27.5966 388.456 27.4526 388.246 27.2768C388.036 27.101 387.931 26.8789 387.931 26.6103L387.931 26.5957C387.931 26.3613 388.001 26.1562 388.143 25.9804C388.285 25.8046 388.478 25.6667 388.722 25.5666C388.966 25.4665 389.244 25.4165 389.557 25.4165C390.035 25.4165 390.423 25.5141 390.721 25.7094C391.019 25.9047 391.209 26.1586 391.292 26.4711L391.292 26.4711L392.545 26.4711L392.545 26.4711C392.486 26.0415 392.326 25.6679 392.065 25.3505C391.804 25.0332 391.46 24.7878 391.032 24.6145C390.605 24.4411 390.116 24.3544 389.564 24.3544C389.007 24.3544 388.507 24.4545 388.062 24.6547C387.618 24.8549 387.268 25.1284 387.011 25.475C386.755 25.8217 386.627 26.2148 386.627 26.6542L386.627 26.6616C386.627 27.228 386.8 27.6809 387.147 28.0202C387.494 28.3596 388.036 28.6171 388.773 28.7929L389.996 29.0859C390.484 29.2031 390.836 29.3557 391.051 29.5437C391.266 29.7316 391.373 29.9599 391.373 30.2285L391.373 30.2431C391.373 30.4824 391.295 30.6936 391.139 30.8767C390.982 31.0598 390.769 31.2038 390.498 31.3088C390.227 31.4138 389.913 31.4663 389.557 31.4663C389.054 31.4663 388.646 31.3662 388.333 31.166C388.021 30.9658 387.811 30.7021 387.704 30.375L387.704 30.375L386.4 30.375L386.4 30.375C386.449 30.8095 386.609 31.1879 386.88 31.5102C387.151 31.8325 387.511 32.0827 387.96 32.2609C388.409 32.4392 388.927 32.5283 389.513 32.5283Z" fill-rule="evenodd"/>
<path clip-path="url(#TextBounds)" d="M397.225 32.4477C397.352 32.4477 397.477 32.4404 397.599 32.4257C397.721 32.4111 397.843 32.394 397.965 32.3745L397.965 31.2905C397.848 31.3002 397.749 31.3076 397.668 31.3125C397.588 31.3173 397.491 31.3198 397.379 31.3198C396.969 31.3198 396.676 31.2185 396.5 31.0158C396.324 30.8132 396.236 30.4799 396.236 30.0161L396.236 25.5483L397.965 25.5483L397.965 24.4936L396.236 24.4936L396.236 22.4501L394.918 22.4501L394.918 24.4936L393.673 24.4936L393.673 25.5483L394.918 25.5483L394.918 30.3383C394.918 31.0903 395.1 31.6298 395.464 31.957C395.827 32.2841 396.415 32.4477 397.225 32.4477Z" fill-rule="evenodd"/>
<path clip-path="url(#TextBounds)" d="M401.803 32.5283C402.159 32.5283 402.486 32.4782 402.784 32.3781C403.082 32.278 403.349 32.1303 403.586 31.935C403.823 31.7397 404.024 31.5029 404.19 31.2246L404.308 31.2246L404.308 32.3891L405.582 32.3891L405.582 26.9838C405.582 26.437 405.466 25.967 405.234 25.5739C405.002 25.1809 404.663 24.8793 404.216 24.6694C403.769 24.4594 403.224 24.3544 402.579 24.3544C402.018 24.3544 401.517 24.4411 401.078 24.6145C400.638 24.7878 400.281 25.0295 400.005 25.3395C399.729 25.6496 399.557 26.0122 399.488 26.4272L399.481 26.4711L400.755 26.4711L400.763 26.4492C400.865 26.1416 401.068 25.9035 401.371 25.7351C401.673 25.5666 402.062 25.4824 402.535 25.4824C403.126 25.4824 403.569 25.6105 403.865 25.8669C404.16 26.1232 404.308 26.4956 404.308 26.9838L404.308 29.4448C404.308 29.8208 404.211 30.1577 404.018 30.4555C403.825 30.7534 403.561 30.989 403.224 31.1623C402.887 31.3356 402.501 31.4223 402.066 31.4223C401.607 31.4223 401.227 31.3112 400.924 31.0891C400.621 30.8669 400.47 30.5556 400.47 30.1552L400.47 30.1406C400.47 29.75 400.608 29.4472 400.884 29.2324C401.159 29.0175 401.598 28.893 402.198 28.8588L404.945 28.6831L404.945 27.665L402.044 27.8408C401.126 27.8945 400.417 28.1203 399.917 28.5183C399.416 28.9162 399.166 29.4667 399.166 30.1699L399.166 30.1845C399.166 30.663 399.282 31.0781 399.514 31.4296C399.746 31.7812 400.061 32.0522 400.459 32.2426C400.857 32.4331 401.305 32.5283 401.803 32.5283Z" fill-rule="evenodd"/>
<path clip-path="url(#TextBounds)" d="M410.929 35.1723C411.646 35.1723 412.269 35.0539 412.796 34.8171C413.324 34.5803 413.73 34.2446 414.016 33.81C414.302 33.3754 414.444 32.8652 414.444 32.2792L414.444 24.4936L413.17 24.4936L413.17 25.7973L413.082 25.7973C412.921 25.4995 412.719 25.2431 412.478 25.0283C412.236 24.8134 411.959 24.6474 411.646 24.5302C411.334 24.413 410.992 24.3544 410.621 24.3544C409.933 24.3544 409.339 24.5192 408.841 24.8488C408.343 25.1784 407.959 25.6301 407.688 26.2038C407.417 26.7775 407.281 27.4331 407.281 28.1704L407.281 28.185C407.281 28.9223 407.416 29.5766 407.684 30.1479C407.953 30.7192 408.335 31.1672 408.83 31.4919C409.326 31.8166 409.913 31.979 410.592 31.979C410.953 31.979 411.29 31.9265 411.603 31.8215C411.915 31.7165 412.196 31.5615 412.445 31.3564C412.694 31.1513 412.901 30.9047 413.067 30.6166L413.185 30.6166L413.185 32.2133C413.185 32.7944 412.986 33.2448 412.588 33.5646C412.19 33.8845 411.637 34.0444 410.929 34.0444C410.362 34.0444 409.908 33.9479 409.566 33.7551C409.225 33.5622 409.02 33.3168 408.951 33.019L408.944 33.0117L407.625 33.0117L407.611 33.019C407.679 33.4487 407.854 33.8259 408.135 34.1506C408.415 34.4753 408.792 34.7268 409.266 34.905C409.74 35.0832 410.294 35.1723 410.929 35.1723ZM410.87 30.851C410.382 30.851 409.968 30.7375 409.629 30.5104C409.289 30.2834 409.031 29.9697 408.852 29.5693C408.674 29.1689 408.585 28.7075 408.585 28.185L408.585 28.1704C408.585 27.6479 408.674 27.184 408.852 26.7788C409.031 26.3735 409.289 26.0561 409.629 25.8266C409.968 25.5971 410.382 25.4824 410.87 25.4824C411.358 25.4824 411.777 25.5971 412.126 25.8266C412.475 26.0561 412.744 26.3735 412.932 26.7788C413.12 27.184 413.214 27.6479 413.214 28.1704L413.214 28.185C413.214 28.7075 413.12 29.1689 412.932 29.5693C412.744 29.9697 412.475 30.2834 412.126 30.5104C411.777 30.7375 411.358 30.851 410.87 30.851Z" fill-rule="evenodd"/>
<path clip-path="url(#TextBounds)" d="M419.806 32.5283C420.27 32.5283 420.688 32.4685 421.062 32.3488C421.435 32.2292 421.759 32.0681 422.032 31.8654C422.306 31.6628 422.529 31.4357 422.702 31.1843C422.876 30.9328 422.997 30.6728 423.065 30.4042L423.08 30.3457L421.805 30.3457L421.776 30.4116C421.708 30.5678 421.588 30.7216 421.417 30.873C421.246 31.0244 421.029 31.1489 420.765 31.2465C420.501 31.3442 420.191 31.393 419.835 31.393C419.356 31.393 418.941 31.2868 418.59 31.0744C418.238 30.862 417.967 30.5568 417.777 30.1589C417.586 29.7609 417.491 29.2812 417.491 28.7197L417.491 28.2143C417.491 27.6235 417.589 27.1254 417.784 26.7202C417.979 26.3149 418.244 26.0085 418.579 25.801C418.913 25.5935 419.293 25.4897 419.718 25.4897C420.143 25.4897 420.519 25.5886 420.846 25.7863C421.173 25.9841 421.429 26.2832 421.615 26.6835C421.8 27.0839 421.893 27.5942 421.893 28.2143L421.893 28.7197L422.523 27.7895L416.847 27.7895L416.847 28.8076L423.175 28.8076L423.175 28.3095C423.175 27.5234 423.037 26.8337 422.761 26.2404C422.485 25.6472 422.09 25.1845 421.574 24.8525C421.059 24.5205 420.443 24.3544 419.725 24.3544C419.012 24.3544 418.39 24.5278 417.857 24.8745C417.325 25.2211 416.914 25.7021 416.623 26.3173C416.333 26.9326 416.188 27.6479 416.188 28.4633L416.188 28.4707C416.188 29.2958 416.333 30.0124 416.623 30.6203C416.914 31.2282 417.329 31.6982 417.868 32.0302C418.408 32.3623 419.054 32.5283 419.806 32.5283Z" fill-rule="evenodd"/>
<path clip-path="url(#TextBounds)" d="M431.253 32.3891L432.499 32.3891L434.93 24.0468L435.018 24.0468L437.45 32.3891L438.695 32.3891L441.573 21.8203L440.196 21.8203L438.094 30.4116L438.006 30.4116L435.641 21.8203L434.308 21.8203L431.942 30.4116L431.854 30.4116L429.752 21.8203L428.375 21.8203L431.253 32.3891Z" fill-rule="evenodd"/>
<path clip-path="url(#TextBounds)" d="M446.407 32.5283C446.871 32.5283 447.29 32.4685 447.663 32.3488C448.037 32.2292 448.36 32.0681 448.634 31.8654C448.907 31.6628 449.131 31.4357 449.304 31.1843C449.477 30.9328 449.598 30.6728 449.667 30.4042L449.681 30.3457L448.407 30.3457L448.377 30.4116C448.309 30.5678 448.189 30.7216 448.019 30.873C447.848 31.0244 447.63 31.1489 447.367 31.2465C447.103 31.3442 446.793 31.393 446.437 31.393C445.958 31.393 445.543 31.2868 445.191 31.0744C444.84 30.862 444.569 30.5568 444.378 30.1589C444.188 29.7609 444.093 29.2812 444.093 28.7197L444.093 28.2143C444.093 27.6235 444.19 27.1254 444.386 26.7202C444.581 26.3149 444.846 26.0085 445.18 25.801C445.515 25.5935 445.895 25.4897 446.319 25.4897C446.744 25.4897 447.12 25.5886 447.447 25.7863C447.774 25.9841 448.031 26.2832 448.216 26.6835C448.402 27.0839 448.495 27.5942 448.495 28.2143L448.495 28.7197L449.125 27.7895L443.448 27.7895L443.448 28.8076L449.776 28.8076L449.776 28.3095C449.776 27.5234 449.638 26.8337 449.363 26.2404C449.087 25.6472 448.691 25.1845 448.176 24.8525C447.661 24.5205 447.044 24.3544 446.327 24.3544C445.614 24.3544 444.991 24.5278 444.459 24.8745C443.927 25.2211 443.515 25.7021 443.225 26.3173C442.934 26.9326 442.789 27.6479 442.789 28.4633L442.789 28.4707C442.789 29.2958 442.934 30.0124 443.225 30.6203C443.515 31.2282 443.93 31.6982 444.47 32.0302C445.01 32.3623 445.655 32.5283 446.407 32.5283Z" fill-rule="evenodd"/>
<path clip-path="url(#TextBounds)" d="M451.593 32.3891L452.867 32.3891L452.867 21.3588L451.593 21.3588L451.593 32.3891Z" fill-rule="evenodd"/>
<path clip-path="url(#TextBounds)" d="M455.152 32.3891L456.427 32.3891L456.427 21.3588L455.152 21.3588L455.152 32.3891Z" fill-rule="evenodd"/>
</g>
<g fill="#000000" opacity="1" stroke="none">
<path clip-path="url(#TextBounds_2)" d="M355.902 72.3891L357.206 72.3891L361.102 61.8203L359.718 61.8203L356.612 70.6826L356.495 70.6826L353.39 61.8203L352.005 61.8203L355.902 72.3891Z" fill-rule="evenodd"/>
<path clip-path="url(#TextBounds_2)" d="M363.995 72.5283C364.352 72.5283 364.679 72.4782 364.977 72.3781C365.274 72.278 365.542 72.1303 365.779 71.935C366.015 71.7397 366.217 71.5029 366.383 71.2246L366.5 71.2246L366.5 72.3891L367.774 72.3891L367.774 66.9838C367.774 66.437 367.658 65.967 367.427 65.5739C367.195 65.1809 366.855 64.8793 366.408 64.6694C365.962 64.4594 365.416 64.3544 364.771 64.3544C364.21 64.3544 363.709 64.4411 363.27 64.6145C362.831 64.7878 362.473 65.0295 362.197 65.3395C361.921 65.6496 361.749 66.0122 361.681 66.4272L361.673 66.4711L362.948 66.4711L362.955 66.4492C363.058 66.1416 363.26 65.9035 363.563 65.7351C363.866 65.5666 364.254 65.4824 364.728 65.4824C365.318 65.4824 365.761 65.6105 366.057 65.8669C366.352 66.1232 366.5 66.4956 366.5 66.9838L366.5 69.4448C366.5 69.8208 366.404 70.1577 366.211 70.4555C366.018 70.7534 365.753 70.989 365.416 71.1623C365.079 71.3356 364.693 71.4223 364.259 71.4223C363.8 71.4223 363.419 71.3112 363.116 71.0891C362.813 70.8669 362.662 70.5556 362.662 70.1552L362.662 70.1406C362.662 69.75 362.8 69.4472 363.076 69.2324C363.352 69.0175 363.79 68.893 364.391 68.8588L367.137 68.6831L367.137 67.665L364.237 67.8408C363.319 67.8945 362.61 68.1203 362.109 68.5183C361.609 68.9162 361.358 69.4667 361.358 70.1699L361.358 70.1845C361.358 70.663 361.474 71.0781 361.706 71.4296C361.938 71.7812 362.253 72.0522 362.651 72.2426C363.049 72.4331 363.497 72.5283 363.995 72.5283Z" fill-rule="evenodd"/>
<path clip-path="url(#TextBounds_2)" d="M369.942 72.3891L371.217 72.3891L371.217 61.3588L369.942 61.3588L369.942 72.3891Z" fill-rule="evenodd"/>
<path clip-path="url(#TextBounds_2)" d="M375.663 72.3891L376.952 72.3891L379.874 64.4936L378.526 64.4936L376.366 70.9975L376.249 70.9975L374.088 64.4936L372.74 64.4936L375.663 72.3891Z" fill-rule="evenodd"/>
<path clip-path="url(#TextBounds_2)" d="M384.254 72.5283C384.718 72.5283 385.136 72.4685 385.51 72.3488C385.884 72.2292 386.207 72.0681 386.48 71.8654C386.754 71.6628 386.977 71.4357 387.151 71.1843C387.324 70.9328 387.445 70.6728 387.513 70.4042L387.528 70.3457L386.253 70.3457L386.224 70.4116C386.156 70.5678 386.036 70.7216 385.865 70.873C385.694 71.0244 385.477 71.1489 385.213 71.2465C384.95 71.3442 384.64 71.393 384.283 71.393C383.805 71.393 383.39 71.2868 383.038 71.0744C382.687 70.862 382.416 70.5568 382.225 70.1589C382.035 69.7609 381.939 69.2812 381.939 68.7197L381.939 68.2143C381.939 67.6235 382.037 67.1254 382.232 66.7202C382.428 66.3149 382.693 66.0085 383.027 65.801C383.362 65.5935 383.741 65.4897 384.166 65.4897C384.591 65.4897 384.967 65.5886 385.294 65.7863C385.621 65.9841 385.877 66.2832 386.063 66.6835C386.249 67.0839 386.341 67.5942 386.341 68.2143L386.341 68.7197L386.971 67.7895L381.295 67.7895L381.295 68.8076L387.623 68.8076L387.623 68.3095C387.623 67.5234 387.485 66.8337 387.209 66.2404C386.933 65.6472 386.538 65.1845 386.023 64.8525C385.508 64.5205 384.891 64.3544 384.173 64.3544C383.46 64.3544 382.838 64.5278 382.306 64.8745C381.773 65.2211 381.362 65.7021 381.072 66.3173C380.781 66.9326 380.636 67.6479 380.636 68.4633L380.636 68.4707C380.636 69.2958 380.781 70.0124 381.072 70.6203C381.362 71.2282 381.777 71.6982 382.317 72.0302C382.856 72.3623 383.502 72.5283 384.254 72.5283Z" fill-rule="evenodd"/>
<path clip-path="url(#TextBounds_2)" d="M391.19 72.3891L392.508 72.3891L392.508 67.8408L396.258 61.8203L394.757 61.8203L391.908 66.5151L391.791 66.5151L388.941 61.8203L387.44 61.8203L391.19 67.8408L391.19 72.3891Z" fill-rule="evenodd"/>
<path clip-path="url(#TextBounds_2)" d="M398.712 72.5283C399.068 72.5283 399.396 72.4782 399.693 72.3781C399.991 72.278 400.259 72.1303 400.495 71.935C400.732 71.7397 400.934 71.5029 401.1 71.2246L401.217 71.2246L401.217 72.3891L402.491 72.3891L402.491 66.9838C402.491 66.437 402.375 65.967 402.143 65.5739C401.911 65.1809 401.572 64.8793 401.125 64.6694C400.678 64.4594 400.133 64.3544 399.488 64.3544C398.927 64.3544 398.426 64.4411 397.987 64.6145C397.547 64.7878 397.19 65.0295 396.914 65.3395C396.638 65.6496 396.466 66.0122 396.397 66.4272L396.39 66.4711L397.665 66.4711L397.672 66.4492C397.774 66.1416 397.977 65.9035 398.28 65.7351C398.583 65.5666 398.971 65.4824 399.444 65.4824C400.035 65.4824 400.478 65.6105 400.774 65.8669C401.069 66.1232 401.217 66.4956 401.217 66.9838L401.217 69.4448C401.217 69.8208 401.12 70.1577 400.927 70.4555C400.735 70.7534 400.47 70.989 400.133 71.1623C399.796 71.3356 399.41 71.4223 398.976 71.4223C398.517 71.4223 398.136 71.3112 397.833 71.0891C397.53 70.8669 397.379 70.5556 397.379 70.1552L397.379 70.1406C397.379 69.75 397.517 69.4472 397.793 69.2324C398.069 69.0175 398.507 68.893 399.107 68.8588L401.854 68.6831L401.854 67.665L398.954 67.8408C398.036 67.8945 397.326 68.1203 396.826 68.5183C396.325 68.9162 396.075 69.4667 396.075 70.1699L396.075 70.1845C396.075 70.663 396.191 71.0781 396.423 71.4296C396.655 71.7812 396.97 72.0522 397.368 72.2426C397.766 72.4331 398.214 72.5283 398.712 72.5283Z" fill-rule="evenodd"/>
<path clip-path="url(#TextBounds_2)" d="M404.586 72.3891L405.86 72.3891L405.86 67.4965C405.86 67.1108 405.949 66.7739 406.128 66.4858C406.306 66.1977 406.551 65.9731 406.864 65.812C407.176 65.6508 407.535 65.5703 407.94 65.5703C408.082 65.5703 408.215 65.5764 408.34 65.5886C408.464 65.6008 408.592 65.6191 408.724 65.6435L408.724 64.4057C408.661 64.3959 408.569 64.385 408.449 64.3728C408.33 64.3605 408.209 64.3544 408.087 64.3544C407.555 64.3544 407.108 64.4692 406.747 64.6987C406.385 64.9282 406.129 65.2504 405.978 65.6655L405.86 65.6655L405.86 64.4936L404.586 64.4936L404.586 72.3891Z" fill-rule="evenodd"/>
<path clip-path="url(#TextBounds_2)" d="M412.76 72.5283C413.312 72.5283 413.8 72.405 414.225 72.1584C414.649 71.9118 414.981 71.5688 415.221 71.1293L415.338 71.1293L415.338 72.3891L416.612 72.3891L416.612 61.3588L415.338 61.3588L415.338 65.7387L415.221 65.7387C415.006 65.3188 414.677 64.9831 414.236 64.7316C413.794 64.4802 413.302 64.3544 412.76 64.3544C412.091 64.3544 411.509 64.5229 411.013 64.8598C410.517 65.1967 410.133 65.6704 409.859 66.2807C409.586 66.8911 409.449 67.6088 409.449 68.434L409.449 68.4487C409.449 69.269 409.586 69.9855 409.859 70.5983C410.133 71.2111 410.519 71.686 411.017 72.0229C411.515 72.3598 412.096 72.5283 412.76 72.5283ZM413.053 71.4003C412.574 71.4003 412.163 71.2819 411.819 71.0451C411.474 70.8083 411.211 70.4689 411.028 70.027C410.844 69.5852 410.753 69.059 410.753 68.4487L410.753 68.434C410.753 67.8188 410.844 67.2915 411.028 66.852C411.211 66.4125 411.474 66.0744 411.819 65.8376C412.163 65.6008 412.574 65.4824 413.053 65.4824C413.531 65.4824 413.944 65.602 414.291 65.8413C414.637 66.0805 414.903 66.4199 415.089 66.8593C415.274 67.2988 415.367 67.8237 415.367 68.434L415.367 68.4487C415.367 69.0541 415.274 69.5778 415.089 70.0197C414.903 70.4616 414.637 70.8022 414.291 71.0415C413.944 71.2807 413.531 71.4003 413.053 71.4003Z" fill-rule="evenodd"/>
</g>
<g fill="#000000" opacity="1" stroke="none">
<path clip-path="url(#TextBounds_3)" d="M356.312 112.638C357.098 112.638 357.784 112.508 358.37 112.246C358.956 111.985 359.41 111.615 359.732 111.137C360.055 110.658 360.216 110.089 360.216 109.43L360.216 109.423C360.216 108.661 359.979 108.048 359.505 107.584C359.032 107.121 358.243 106.767 357.14 106.522L355.968 106.259C355.25 106.102 354.735 105.88 354.422 105.592C354.11 105.304 353.954 104.95 353.954 104.53L353.954 104.523C353.954 104.152 354.057 103.838 354.265 103.582C354.472 103.325 354.752 103.129 355.104 102.992C355.455 102.855 355.851 102.787 356.29 102.787C356.749 102.782 357.149 102.851 357.491 102.992C357.833 103.134 358.106 103.325 358.312 103.567C358.517 103.809 358.644 104.086 358.692 104.398L358.707 104.494L360.025 104.494L360.018 104.391C359.984 103.864 359.807 103.388 359.487 102.963C359.167 102.538 358.736 102.2 358.194 101.948C357.652 101.697 357.03 101.571 356.327 101.571C355.599 101.571 354.956 101.698 354.397 101.952C353.838 102.206 353.401 102.558 353.086 103.007C352.771 103.456 352.611 103.974 352.606 104.56L352.606 104.567C352.606 105.333 352.846 105.962 353.327 106.453C353.808 106.944 354.579 107.306 355.638 107.54L356.81 107.797C357.538 107.958 358.062 108.189 358.385 108.489C358.707 108.789 358.868 109.159 358.868 109.599L358.868 109.606C358.868 109.962 358.761 110.277 358.546 110.551C358.331 110.824 358.037 111.038 357.663 111.192C357.29 111.345 356.864 111.422 356.385 111.422C355.877 111.422 355.425 111.352 355.027 111.21C354.629 111.068 354.311 110.869 354.074 110.613C353.838 110.357 353.702 110.053 353.668 109.701L353.661 109.621L352.342 109.621L352.35 109.701C352.403 110.272 352.597 110.779 352.932 111.221C353.266 111.663 353.72 112.009 354.294 112.261C354.868 112.512 355.541 112.638 356.312 112.638Z" fill-rule="evenodd"/>
<path clip-path="url(#TextBounds_3)" d="M365.233 112.528C365.697 112.528 366.115 112.468 366.489 112.349C366.863 112.229 367.186 112.068 367.459 111.865C367.733 111.663 367.956 111.436 368.13 111.184C368.303 110.933 368.424 110.673 368.492 110.404L368.507 110.346L367.232 110.346L367.203 110.412C367.135 110.568 367.015 110.722 366.844 110.873C366.673 111.024 366.456 111.149 366.192 111.247C365.929 111.344 365.619 111.393 365.262 111.393C364.784 111.393 364.369 111.287 364.017 111.074C363.666 110.862 363.395 110.557 363.204 110.159C363.014 109.761 362.918 109.281 362.918 108.72L362.918 108.214C362.918 107.623 363.016 107.125 363.211 106.72C363.407 106.315 363.672 106.008 364.006 105.801C364.341 105.593 364.72 105.49 365.145 105.49C365.57 105.49 365.946 105.589 366.273 105.786C366.6 105.984 366.856 106.283 367.042 106.684C367.228 107.084 367.32 107.594 367.32 108.214L367.32 108.72L367.95 107.79L362.274 107.79L362.274 108.808L368.602 108.808L368.602 108.31C368.602 107.523 368.464 106.834 368.188 106.24C367.912 105.647 367.517 105.185 367.002 104.852C366.487 104.52 365.87 104.354 365.152 104.354C364.439 104.354 363.817 104.528 363.285 104.874C362.752 105.221 362.341 105.702 362.051 106.317C361.76 106.933 361.615 107.648 361.615 108.463L361.615 108.471C361.615 109.296 361.76 110.012 362.051 110.62C362.341 111.228 362.756 111.698 363.296 112.03C363.835 112.362 364.481 112.528 365.233 112.528Z" fill-rule="evenodd"/>
<path clip-path="url(#TextBounds_3)" d="M373.575 112.528C374.21 112.528 374.752 112.423 375.201 112.213C375.65 112.003 376.012 111.714 376.285 111.345C376.559 110.977 376.749 110.556 376.856 110.082L376.871 110.001L375.611 110.009L375.597 110.053C375.45 110.492 375.208 110.827 374.872 111.056C374.535 111.286 374.1 111.4 373.568 111.4C373.099 111.4 372.691 111.278 372.345 111.034C371.998 110.79 371.729 110.445 371.539 109.998C371.349 109.551 371.253 109.025 371.253 108.419L371.253 108.405C371.253 107.809 371.347 107.293 371.535 106.856C371.723 106.419 371.991 106.081 372.337 105.841C372.684 105.602 373.094 105.482 373.568 105.482C374.134 105.482 374.591 105.619 374.938 105.893C375.284 106.166 375.506 106.498 375.604 106.889L375.611 106.911L376.878 106.911L376.871 106.867C376.793 106.398 376.615 105.974 376.336 105.596C376.058 105.217 375.687 104.916 375.223 104.691C374.759 104.467 374.208 104.354 373.568 104.354C372.831 104.354 372.191 104.522 371.649 104.856C371.107 105.191 370.688 105.661 370.393 106.266C370.097 106.872 369.95 107.584 369.95 108.405L369.95 108.419C369.95 109.254 370.099 109.979 370.396 110.595C370.694 111.21 371.114 111.686 371.656 112.023C372.198 112.36 372.838 112.528 373.575 112.528Z" fill-rule="evenodd"/>
<path clip-path="url(#TextBounds_3)" d="M381.749 112.528C382.501 112.528 383.148 112.363 383.69 112.034C384.232 111.704 384.651 111.234 384.946 110.624C385.241 110.014 385.389 109.289 385.389 108.449L385.389 108.434C385.389 107.589 385.241 106.862 384.946 106.251C384.651 105.641 384.232 105.172 383.69 104.845C383.148 104.518 382.501 104.354 381.749 104.354C381.002 104.354 380.356 104.518 379.812 104.845C379.267 105.172 378.847 105.641 378.552 106.251C378.257 106.862 378.109 107.589 378.109 108.434L378.109 108.449C378.109 109.289 378.257 110.014 378.552 110.624C378.847 111.234 379.267 111.704 379.812 112.034C380.356 112.363 381.002 112.528 381.749 112.528ZM381.749 111.4C381.251 111.4 380.829 111.283 380.482 111.049C380.135 110.814 379.87 110.477 379.687 110.038C379.504 109.599 379.413 109.069 379.413 108.449L379.413 108.434C379.413 107.809 379.504 107.277 379.687 106.837C379.87 106.398 380.135 106.062 380.482 105.83C380.829 105.598 381.251 105.482 381.749 105.482C382.247 105.482 382.669 105.598 383.016 105.83C383.363 106.062 383.628 106.398 383.811 106.837C383.994 107.277 384.085 107.809 384.085 108.434L384.085 108.449C384.085 109.069 383.994 109.599 383.811 110.038C383.628 110.477 383.363 110.814 383.016 111.049C382.669 111.283 382.247 111.4 381.749 111.4Z" fill-rule="evenodd"/>
<path clip-path="url(#TextBounds_3)" d="M387.132 112.389L388.407 112.389L388.407 107.716C388.407 107.252 388.491 106.854 388.659 106.522C388.828 106.19 389.066 105.934 389.374 105.753C389.681 105.573 390.045 105.482 390.465 105.482C391.095 105.482 391.56 105.654 391.86 105.999C392.16 106.343 392.311 106.872 392.311 107.584L392.311 112.389L393.585 112.389L393.585 107.277C393.585 106.339 393.347 105.618 392.871 105.112C392.395 104.607 391.712 104.354 390.824 104.354C390.243 104.354 389.764 104.47 389.388 104.702C389.012 104.934 388.724 105.26 388.524 105.68L388.407 105.68L388.407 104.494L387.132 104.494L387.132 112.389Z" fill-rule="evenodd"/>
<path clip-path="url(#TextBounds_3)" d="M398.565 112.528C399.117 112.528 399.605 112.405 400.03 112.158C400.455 111.912 400.787 111.569 401.026 111.129L401.144 111.129L401.144 112.389L402.418 112.389L402.418 101.359L401.144 101.359L401.144 105.739L401.026 105.739C400.812 105.319 400.483 104.983 400.041 104.732C399.599 104.48 399.107 104.354 398.565 104.354C397.896 104.354 397.314 104.523 396.819 104.86C396.323 105.197 395.938 105.67 395.665 106.281C395.392 106.891 395.255 107.609 395.255 108.434L395.255 108.449C395.255 109.269 395.392 109.986 395.665 110.598C395.938 111.211 396.324 111.686 396.822 112.023C397.32 112.36 397.901 112.528 398.565 112.528ZM398.858 111.4C398.38 111.4 397.969 111.282 397.624 111.045C397.28 110.808 397.016 110.469 396.833 110.027C396.65 109.585 396.559 109.059 396.559 108.449L396.559 108.434C396.559 107.819 396.65 107.291 396.833 106.852C397.016 106.413 397.28 106.074 397.624 105.838C397.969 105.601 398.38 105.482 398.858 105.482C399.337 105.482 399.75 105.602 400.096 105.841C400.443 106.081 400.709 106.42 400.895 106.859C401.08 107.299 401.173 107.824 401.173 108.434L401.173 108.449C401.173 109.054 401.08 109.578 400.895 110.02C400.709 110.462 400.443 110.802 400.096 111.041C399.75 111.281 399.337 111.4 398.858 111.4Z" fill-rule="evenodd"/>
<path clip-path="url(#TextBounds_3)" d="M411.324 112.528C411.925 112.528 412.463 112.428 412.939 112.228C413.415 112.028 413.792 111.748 414.071 111.389C414.349 111.03 414.488 110.617 414.488 110.148L414.488 110.133C414.488 109.567 414.306 109.115 413.943 108.778C413.579 108.441 413.026 108.183 412.284 108.002L411.068 107.709C410.604 107.597 410.267 107.453 410.057 107.277C409.847 107.101 409.742 106.879 409.742 106.61L409.742 106.596C409.742 106.361 409.813 106.156 409.955 105.98C410.096 105.805 410.289 105.667 410.533 105.567C410.777 105.467 411.056 105.416 411.368 105.416C411.847 105.416 412.235 105.514 412.533 105.709C412.831 105.905 413.021 106.159 413.104 106.471L413.104 106.471L414.356 106.471L414.356 106.471C414.298 106.041 414.138 105.668 413.877 105.351C413.615 105.033 413.271 104.788 412.844 104.614C412.417 104.441 411.927 104.354 411.375 104.354C410.819 104.354 410.318 104.455 409.874 104.655C409.43 104.855 409.079 105.128 408.823 105.475C408.567 105.822 408.438 106.215 408.438 106.654L408.438 106.662C408.438 107.228 408.612 107.681 408.958 108.02C409.305 108.36 409.847 108.617 410.584 108.793L411.808 109.086C412.296 109.203 412.647 109.356 412.862 109.544C413.077 109.732 413.185 109.96 413.185 110.228L413.185 110.243C413.185 110.482 413.106 110.694 412.95 110.877C412.794 111.06 412.58 111.204 412.309 111.309C412.038 111.414 411.725 111.466 411.368 111.466C410.865 111.466 410.458 111.366 410.145 111.166C409.833 110.966 409.623 110.702 409.515 110.375L409.515 110.375L408.211 110.375L408.211 110.375C408.26 110.81 408.42 111.188 408.691 111.51C408.962 111.832 409.322 112.083 409.771 112.261C410.221 112.439 410.738 112.528 411.324 112.528Z" fill-rule="evenodd"/>
<path clip-path="url(#TextBounds_3)" d="M419.037 112.448C419.164 112.448 419.288 112.44 419.41 112.426C419.532 112.411 419.654 112.394 419.776 112.374L419.776 111.29C419.659 111.3 419.56 111.308 419.48 111.312C419.399 111.317 419.303 111.32 419.19 111.32C418.78 111.32 418.487 111.218 418.312 111.016C418.136 110.813 418.048 110.48 418.048 110.016L418.048 105.548L419.776 105.548L419.776 104.494L418.048 104.494L418.048 102.45L416.729 102.45L416.729 104.494L415.484 104.494L415.484 105.548L416.729 105.548L416.729 110.338C416.729 111.09 416.911 111.63 417.275 111.957C417.639 112.284 418.226 112.448 419.037 112.448Z" fill-rule="evenodd"/>
<path clip-path="url(#TextBounds_3)" d="M423.614 112.528C423.971 112.528 424.298 112.478 424.596 112.378C424.894 112.278 425.161 112.13 425.398 111.935C425.635 111.74 425.836 111.503 426.002 111.225L426.119 111.225L426.119 112.389L427.394 112.389L427.394 106.984C427.394 106.437 427.278 105.967 427.046 105.574C426.814 105.181 426.474 104.879 426.028 104.669C425.581 104.459 425.035 104.354 424.391 104.354C423.829 104.354 423.329 104.441 422.889 104.614C422.45 104.788 422.092 105.029 421.816 105.34C421.54 105.65 421.368 106.012 421.3 106.427L421.292 106.471L422.567 106.471L422.574 106.449C422.677 106.142 422.879 105.904 423.182 105.735C423.485 105.567 423.873 105.482 424.347 105.482C424.938 105.482 425.381 105.611 425.676 105.867C425.971 106.123 426.119 106.496 426.119 106.984L426.119 109.445C426.119 109.821 426.023 110.158 425.83 110.456C425.637 110.753 425.372 110.989 425.035 111.162C424.698 111.336 424.313 111.422 423.878 111.422C423.419 111.422 423.038 111.311 422.735 111.089C422.433 110.867 422.281 110.556 422.281 110.155L422.281 110.141C422.281 109.75 422.419 109.447 422.695 109.232C422.971 109.018 423.409 108.893 424.01 108.859L426.756 108.683L426.756 107.665L423.856 107.841C422.938 107.894 422.229 108.12 421.728 108.518C421.228 108.916 420.978 109.467 420.978 110.17L420.978 110.185C420.978 110.663 421.094 111.078 421.325 111.43C421.557 111.781 421.872 112.052 422.27 112.243C422.668 112.433 423.116 112.528 423.614 112.528Z" fill-rule="evenodd"/>
<path clip-path="url(#TextBounds_3)" d="M432.74 115.172C433.458 115.172 434.081 115.054 434.608 114.817C435.135 114.58 435.542 114.245 435.827 113.81C436.113 113.375 436.256 112.865 436.256 112.279L436.256 104.494L434.981 104.494L434.981 105.797L434.894 105.797C434.732 105.499 434.531 105.243 434.289 105.028C434.048 104.813 433.771 104.647 433.458 104.53C433.146 104.413 432.804 104.354 432.433 104.354C431.744 104.354 431.151 104.519 430.653 104.849C430.155 105.178 429.77 105.63 429.499 106.204C429.228 106.778 429.093 107.433 429.093 108.17L429.093 108.185C429.093 108.922 429.227 109.577 429.496 110.148C429.764 110.719 430.146 111.167 430.642 111.492C431.137 111.817 431.725 111.979 432.403 111.979C432.765 111.979 433.102 111.926 433.414 111.821C433.727 111.717 434.007 111.561 434.256 111.356C434.505 111.151 434.713 110.905 434.879 110.617L434.996 110.617L434.996 112.213C434.996 112.794 434.797 113.245 434.399 113.565C434.001 113.884 433.448 114.044 432.74 114.044C432.174 114.044 431.72 113.948 431.378 113.755C431.036 113.562 430.831 113.317 430.763 113.019L430.755 113.012L429.437 113.012L429.422 113.019C429.491 113.449 429.665 113.826 429.946 114.151C430.227 114.475 430.604 114.727 431.078 114.905C431.551 115.083 432.105 115.172 432.74 115.172ZM432.682 110.851C432.193 110.851 431.78 110.737 431.44 110.51C431.101 110.283 430.842 109.97 430.664 109.569C430.486 109.169 430.396 108.707 430.396 108.185L430.396 108.17C430.396 107.648 430.486 107.184 430.664 106.779C430.842 106.373 431.101 106.056 431.44 105.827C431.78 105.597 432.193 105.482 432.682 105.482C433.17 105.482 433.589 105.597 433.938 105.827C434.287 106.056 434.555 106.373 434.743 106.779C434.931 107.184 435.025 107.648 435.025 108.17L435.025 108.185C435.025 108.707 434.931 109.169 434.743 109.569C434.555 109.97 434.287 110.283 433.938 110.51C433.589 110.737 433.17 110.851 432.682 110.851Z" fill-rule="evenodd"/>
<path clip-path="url(#TextBounds_3)" d="M441.617 112.528C442.081 112.528 442.5 112.468 442.873 112.349C443.247 112.229 443.57 112.068 443.844 111.865C444.117 111.663 444.341 111.436 444.514 111.184C444.687 110.933 444.808 110.673 444.876 110.404L444.891 110.346L443.617 110.346L443.587 110.412C443.519 110.568 443.399 110.722 443.229 110.873C443.058 111.024 442.84 111.149 442.577 111.247C442.313 111.344 442.003 111.393 441.646 111.393C441.168 111.393 440.753 111.287 440.401 111.074C440.05 110.862 439.779 110.557 439.588 110.159C439.398 109.761 439.303 109.281 439.303 108.72L439.303 108.214C439.303 107.623 439.4 107.125 439.596 106.72C439.791 106.315 440.056 106.008 440.39 105.801C440.725 105.593 441.104 105.49 441.529 105.49C441.954 105.49 442.33 105.589 442.657 105.786C442.984 105.984 443.241 106.283 443.426 106.684C443.612 107.084 443.705 107.594 443.705 108.214L443.705 108.72L444.334 107.79L438.658 107.79L438.658 108.808L444.986 108.808L444.986 108.31C444.986 107.523 444.848 106.834 444.573 106.24C444.297 105.647 443.901 105.185 443.386 104.852C442.871 104.52 442.254 104.354 441.537 104.354C440.824 104.354 440.201 104.528 439.669 104.874C439.137 105.221 438.725 105.702 438.435 106.317C438.144 106.933 437.999 107.648 437.999 108.463L437.999 108.471C437.999 109.296 438.144 110.012 438.435 110.62C438.725 111.228 439.14 111.698 439.68 112.03C440.219 112.362 440.865 112.528 441.617 112.528Z" fill-rule="evenodd"/>
<path clip-path="url(#TextBounds_3)" d="M453.065 112.389L454.31 112.389L456.742 104.047L456.83 104.047L459.261 112.389L460.506 112.389L463.385 101.82L462.008 101.82L459.906 110.412L459.818 110.412L457.452 101.82L456.119 101.82L453.753 110.412L453.666 110.412L451.563 101.82L450.187 101.82L453.065 112.389Z" fill-rule="evenodd"/>
<path clip-path="url(#TextBounds_3)" d="M468.219 112.528C468.683 112.528 469.101 112.468 469.475 112.349C469.848 112.229 470.172 112.068 470.445 111.865C470.719 111.663 470.942 111.436 471.115 111.184C471.289 110.933 471.41 110.673 471.478 110.404L471.493 110.346L470.218 110.346L470.189 110.412C470.121 110.568 470.001 110.722 469.83 110.873C469.659 111.024 469.442 111.149 469.178 111.247C468.915 111.344 468.604 111.393 468.248 111.393C467.77 111.393 467.354 111.287 467.003 111.074C466.651 110.862 466.38 110.557 466.19 110.159C466 109.761 465.904 109.281 465.904 108.72L465.904 108.214C465.904 107.623 466.002 107.125 466.197 106.72C466.393 106.315 466.657 106.008 466.992 105.801C467.326 105.593 467.706 105.49 468.131 105.49C468.556 105.49 468.932 105.589 469.259 105.786C469.586 105.984 469.842 106.283 470.028 106.684C470.213 107.084 470.306 107.594 470.306 108.214L470.306 108.72L470.936 107.79L465.26 107.79L465.26 108.808L471.588 108.808L471.588 108.31C471.588 107.523 471.45 106.834 471.174 106.24C470.898 105.647 470.503 105.185 469.988 104.852C469.472 104.52 468.856 104.354 468.138 104.354C467.425 104.354 466.803 104.528 466.271 104.874C465.738 105.221 465.327 105.702 465.036 106.317C464.746 106.933 464.601 107.648 464.601 108.463L464.601 108.471C464.601 109.296 464.746 110.012 465.036 110.62C465.327 111.228 465.742 111.698 466.281 112.03C466.821 112.362 467.467 112.528 468.219 112.528Z" fill-rule="evenodd"/>
<path clip-path="url(#TextBounds_3)" d="M473.404 112.389L474.679 112.389L474.679 101.359L473.404 101.359L473.404 112.389Z" fill-rule="evenodd"/>
<path clip-path="url(#TextBounds_3)" d="M476.964 112.389L478.238 112.389L478.238 101.359L476.964 101.359L476.964 112.389Z" fill-rule="evenodd"/>
</g>
<g opacity="1">
<path d="M410 278.107" fill="#000000" fill-rule="evenodd" stroke="none"/>
<path d="" fill="none" stroke="#000000" stroke-linecap="round" stroke-linejoin="round" stroke-width="4"/>
<g fill="#000000" stroke="none">
<path d="M-11.4002 13.5479L3.26648 1.54791L5.15837 0L3.26648-1.54791L-11.4002-13.5479C-12.2551-14.2474-13.5151-14.1214-14.2146-13.2665C-14.914-12.4116-14.788-11.1515-13.9331-10.4521L0.733524 1.54791L0.733524-1.54791L-13.9331 10.4521C-14.788 11.1515-14.914 12.4116-14.2146 13.2665C-13.5151 14.1214-12.2551 14.2474-11.4002 13.5479Z" fill="#000000"/>
</g>
</g>
<g opacity="1">
<path d="" fill="none" stroke="#000000" stroke-linecap="round" stroke-linejoin="round" stroke-width="4"/>
<g fill="#000000" stroke="none">
<path d="M-11.4002 13.5479L3.26648 1.54791L5.15837 0L3.26648-1.54791L-11.4002-13.5479C-12.2551-14.2474-13.5151-14.1214-14.2146-13.2665C-14.914-12.4116-14.788-11.1515-13.9331-10.4521L0.733524 1.54791L0.733524-1.54791L-13.9331 10.4521C-14.788 11.1515-14.914 12.4116-14.2146 13.2665C-13.5151 14.1214-12.2551 14.2474-11.4002 13.5479Z" fill="#000000"/>
</g>
</g>
<g opacity="1">
<path d="M334.84 148.107C331.006 148.107 300 148.107 300 148.107" fill="none" stroke="#000000" stroke-linecap="round" stroke-linejoin="round" stroke-width="4"/>
<g fill="#000000" stroke="none">
<path d="M323.44 161.655L338.107 149.655L339.999 148.107L338.107 146.559L323.44 134.559C322.585 133.86 321.325 133.986 320.626 134.84C319.926 135.695 320.052 136.955 320.907 137.655L335.574 149.655L335.574 146.559L320.907 158.559C320.052 159.258 319.926 160.519 320.626 161.373C321.325 162.228 322.585 162.354 323.44 161.655Z" fill="#000000"/>
</g>
</g>
<g fill="#000000" opacity="1" stroke="none">
<path clip-path="url(#TextBounds_4)" d="M352.848 152.389L356.473 152.389C357.523 152.389 358.419 152.18 359.161 151.763C359.903 151.345 360.472 150.742 360.868 149.954C361.263 149.165 361.461 148.217 361.461 147.108L361.461 147.094C361.461 145.985 361.263 145.038 360.868 144.252C360.472 143.466 359.902 142.864 359.157 142.446C358.413 142.029 357.518 141.82 356.473 141.82L352.848 141.82L352.848 152.389ZM354.166 151.203L354.166 143.007L356.385 143.007C357.167 143.007 357.835 143.169 358.392 143.494C358.949 143.819 359.375 144.287 359.67 144.9C359.966 145.513 360.113 146.249 360.113 147.108L360.113 147.123C360.113 147.977 359.967 148.71 359.674 149.32C359.381 149.931 358.956 150.397 358.399 150.719C357.843 151.041 357.171 151.203 356.385 151.203L354.166 151.203Z" fill-rule="evenodd"/>
<path clip-path="url(#TextBounds_4)" d="M366.573 152.528C367.037 152.528 367.456 152.468 367.829 152.349C368.203 152.229 368.526 152.068 368.8 151.865C369.073 151.663 369.297 151.436 369.47 151.184C369.643 150.933 369.764 150.673 369.833 150.404L369.847 150.346L368.573 150.346L368.543 150.412C368.475 150.568 368.355 150.722 368.185 150.873C368.014 151.024 367.796 151.149 367.533 151.247C367.269 151.344 366.959 151.393 366.603 151.393C366.124 151.393 365.709 151.287 365.357 151.074C365.006 150.862 364.735 150.557 364.544 150.159C364.354 149.761 364.259 149.281 364.259 148.72L364.259 148.214C364.259 147.623 364.356 147.125 364.552 146.72C364.747 146.315 365.012 146.008 365.346 145.801C365.681 145.593 366.061 145.49 366.485 145.49C366.91 145.49 367.286 145.589 367.613 145.786C367.94 145.984 368.197 146.283 368.382 146.684C368.568 147.084 368.661 147.594 368.661 148.214L368.661 148.72L369.291 147.79L363.614 147.79L363.614 148.808L369.942 148.808L369.942 148.31C369.942 147.523 369.804 146.834 369.529 146.24C369.253 145.647 368.857 145.185 368.342 144.852C367.827 144.52 367.21 144.354 366.493 144.354C365.78 144.354 365.157 144.528 364.625 144.874C364.093 145.221 363.681 145.702 363.391 146.317C363.1 146.933 362.955 147.648 362.955 148.463L362.955 148.471C362.955 149.296 363.1 150.012 363.391 150.62C363.681 151.228 364.096 151.698 364.636 152.03C365.176 152.362 365.821 152.528 366.573 152.528Z" fill-rule="evenodd"/>
<path clip-path="url(#TextBounds_4)" d="M371.686 155.026L372.96 155.026L372.96 151.144L373.077 151.144C373.224 151.427 373.42 151.671 373.667 151.876C373.913 152.081 374.197 152.241 374.516 152.356C374.836 152.471 375.177 152.528 375.538 152.528C376.207 152.528 376.789 152.36 377.285 152.023C377.781 151.686 378.165 151.212 378.438 150.602C378.712 149.992 378.849 149.274 378.849 148.449L378.849 148.434C378.849 147.614 378.712 146.898 378.438 146.288C378.165 145.678 377.781 145.203 377.285 144.863C376.789 144.524 376.207 144.354 375.538 144.354C375.172 144.354 374.833 144.411 374.52 144.523C374.208 144.635 373.929 144.795 373.685 145.003C373.441 145.21 373.238 145.46 373.077 145.753L372.96 145.753L372.96 144.494L371.686 144.494L371.686 155.026ZM375.245 151.4C374.767 151.4 374.354 151.281 374.007 151.041C373.661 150.802 373.395 150.462 373.209 150.02C373.023 149.578 372.931 149.054 372.931 148.449L372.931 148.434C372.931 147.824 373.023 147.299 373.209 146.859C373.395 146.42 373.661 146.081 374.007 145.841C374.354 145.602 374.767 145.482 375.245 145.482C375.729 145.482 376.141 145.601 376.483 145.838C376.825 146.074 377.087 146.413 377.27 146.852C377.453 147.291 377.545 147.819 377.545 148.434L377.545 148.449C377.545 149.059 377.453 149.585 377.27 150.027C377.087 150.469 376.825 150.808 376.483 151.045C376.141 151.282 375.729 151.4 375.245 151.4Z" fill-rule="evenodd"/>
<path clip-path="url(#TextBounds_4)" d="M383.829 152.528C384.293 152.528 384.712 152.468 385.085 152.349C385.459 152.229 385.782 152.068 386.056 151.865C386.329 151.663 386.552 151.436 386.726 151.184C386.899 150.933 387.02 150.673 387.088 150.404L387.103 150.346L385.829 150.346L385.799 150.412C385.731 150.568 385.611 150.722 385.44 150.873C385.27 151.024 385.052 151.149 384.789 151.247C384.525 151.344 384.215 151.393 383.858 151.393C383.38 151.393 382.965 151.287 382.613 151.074C382.262 150.862 381.991 150.557 381.8 150.159C381.61 149.761 381.515 149.281 381.515 148.72L381.515 148.214C381.515 147.623 381.612 147.125 381.808 146.72C382.003 146.315 382.268 146.008 382.602 145.801C382.937 145.593 383.316 145.49 383.741 145.49C384.166 145.49 384.542 145.589 384.869 145.786C385.196 145.984 385.453 146.283 385.638 146.684C385.824 147.084 385.917 147.594 385.917 148.214L385.917 148.72L386.546 147.79L380.87 147.79L380.87 148.808L387.198 148.808L387.198 148.31C387.198 147.523 387.06 146.834 386.784 146.24C386.509 145.647 386.113 145.185 385.598 144.852C385.083 144.52 384.466 144.354 383.749 144.354C383.036 144.354 382.413 144.528 381.881 144.874C381.349 145.221 380.937 145.702 380.647 146.317C380.356 146.933 380.211 147.648 380.211 148.463L380.211 148.471C380.211 149.296 380.356 150.012 380.647 150.62C380.937 151.228 381.352 151.698 381.892 152.03C382.431 152.362 383.077 152.528 383.829 152.528Z" fill-rule="evenodd"/>
<path clip-path="url(#TextBounds_4)" d="M388.941 152.389L390.216 152.389L390.216 147.716C390.216 147.252 390.3 146.854 390.469 146.522C390.637 146.19 390.875 145.934 391.183 145.753C391.49 145.573 391.854 145.482 392.274 145.482C392.904 145.482 393.369 145.654 393.669 145.999C393.969 146.343 394.12 146.872 394.12 147.584L394.12 152.389L395.394 152.389L395.394 147.277C395.394 146.339 395.156 145.618 394.68 145.112C394.204 144.607 393.521 144.354 392.633 144.354C392.052 144.354 391.573 144.47 391.197 144.702C390.821 144.934 390.533 145.26 390.333 145.68L390.216 145.68L390.216 144.494L388.941 144.494L388.941 152.389Z" fill-rule="evenodd"/>
<path clip-path="url(#TextBounds_4)" d="M400.375 152.528C400.926 152.528 401.415 152.405 401.839 152.158C402.264 151.912 402.596 151.569 402.835 151.129L402.953 151.129L402.953 152.389L404.227 152.389L404.227 141.359L402.953 141.359L402.953 145.739L402.835 145.739C402.621 145.319 402.292 144.983 401.85 144.732C401.408 144.48 400.917 144.354 400.375 144.354C399.706 144.354 399.123 144.523 398.628 144.86C398.132 145.197 397.748 145.67 397.474 146.281C397.201 146.891 397.064 147.609 397.064 148.434L397.064 148.449C397.064 149.269 397.201 149.986 397.474 150.598C397.748 151.211 398.133 151.686 398.631 152.023C399.129 152.36 399.71 152.528 400.375 152.528ZM400.667 151.4C400.189 151.4 399.778 151.282 399.433 151.045C399.089 150.808 398.825 150.469 398.642 150.027C398.459 149.585 398.368 149.059 398.368 148.449L398.368 148.434C398.368 147.819 398.459 147.291 398.642 146.852C398.825 146.413 399.089 146.074 399.433 145.838C399.778 145.601 400.189 145.482 400.667 145.482C401.146 145.482 401.559 145.602 401.905 145.841C402.252 146.081 402.518 146.42 402.704 146.859C402.889 147.299 402.982 147.824 402.982 148.434L402.982 148.449C402.982 149.054 402.889 149.578 402.704 150.02C402.518 150.462 402.252 150.802 401.905 151.041C401.559 151.281 401.146 151.4 400.667 151.4Z" fill-rule="evenodd"/>
<path clip-path="url(#TextBounds_4)" d="M409.662 152.528C410.125 152.528 410.544 152.468 410.918 152.349C411.291 152.229 411.615 152.068 411.888 151.865C412.162 151.663 412.385 151.436 412.558 151.184C412.732 150.933 412.853 150.673 412.921 150.404L412.936 150.346L411.661 150.346L411.632 150.412C411.563 150.568 411.444 150.722 411.273 150.873C411.102 151.024 410.885 151.149 410.621 151.247C410.357 151.344 410.047 151.393 409.691 151.393C409.212 151.393 408.797 151.287 408.446 151.074C408.094 150.862 407.823 150.557 407.633 150.159C407.442 149.761 407.347 149.281 407.347 148.72L407.347 148.214C407.347 147.623 407.445 147.125 407.64 146.72C407.835 146.315 408.1 146.008 408.435 145.801C408.769 145.593 409.149 145.49 409.574 145.49C409.999 145.49 410.375 145.589 410.702 145.786C411.029 145.984 411.285 146.283 411.471 146.684C411.656 147.084 411.749 147.594 411.749 148.214L411.749 148.72L412.379 147.79L406.703 147.79L406.703 148.808L413.031 148.808L413.031 148.31C413.031 147.523 412.893 146.834 412.617 146.24C412.341 145.647 411.946 145.185 411.43 144.852C410.915 144.52 410.299 144.354 409.581 144.354C408.868 144.354 408.246 144.528 407.713 144.874C407.181 145.221 406.77 145.702 406.479 146.317C406.189 146.933 406.043 147.648 406.043 148.463L406.043 148.471C406.043 149.296 406.189 150.012 406.479 150.62C406.77 151.228 407.185 151.698 407.724 152.03C408.264 152.362 408.91 152.528 409.662 152.528Z" fill-rule="evenodd"/>
<path clip-path="url(#TextBounds_4)" d="M414.774 152.389L416.048 152.389L416.048 147.716C416.048 147.252 416.133 146.854 416.301 146.522C416.469 146.19 416.708 145.934 417.015 145.753C417.323 145.573 417.687 145.482 418.106 145.482C418.736 145.482 419.201 145.654 419.502 145.999C419.802 146.343 419.952 146.872 419.952 147.584L419.952 152.389L421.227 152.389L421.227 147.277C421.227 146.339 420.989 145.618 420.512 145.112C420.036 144.607 419.354 144.354 418.465 144.354C417.884 144.354 417.406 144.47 417.03 144.702C416.654 144.934 416.366 145.26 416.166 145.68L416.048 145.68L416.048 144.494L414.774 144.494L414.774 152.389Z" fill-rule="evenodd"/>
<path clip-path="url(#TextBounds_4)" d="M426.522 152.528C427.157 152.528 427.699 152.423 428.148 152.213C428.597 152.003 428.958 151.714 429.232 151.345C429.505 150.977 429.696 150.556 429.803 150.082L429.818 150.001L428.558 150.009L428.543 150.053C428.397 150.492 428.155 150.827 427.818 151.056C427.481 151.286 427.047 151.4 426.515 151.4C426.046 151.4 425.638 151.278 425.292 151.034C424.945 150.79 424.676 150.445 424.486 149.998C424.295 149.551 424.2 149.025 424.2 148.419L424.2 148.405C424.2 147.809 424.294 147.293 424.482 146.856C424.67 146.419 424.937 146.081 425.284 145.841C425.631 145.602 426.041 145.482 426.515 145.482C427.081 145.482 427.538 145.619 427.884 145.893C428.231 146.166 428.453 146.498 428.551 146.889L428.558 146.911L429.825 146.911L429.818 146.867C429.74 146.398 429.562 145.974 429.283 145.596C429.005 145.217 428.634 144.916 428.17 144.691C427.706 144.467 427.154 144.354 426.515 144.354C425.777 144.354 425.138 144.522 424.596 144.856C424.054 145.191 423.635 145.661 423.34 146.266C423.044 146.872 422.896 147.584 422.896 148.405L422.896 148.419C422.896 149.254 423.045 149.979 423.343 150.595C423.641 151.21 424.061 151.686 424.603 152.023C425.145 152.36 425.785 152.528 426.522 152.528Z" fill-rule="evenodd"/>
<path clip-path="url(#TextBounds_4)" d="M432.125 155.158C432.594 155.158 432.988 155.091 433.308 154.956C433.628 154.822 433.906 154.589 434.143 154.257C434.38 153.925 434.608 153.463 434.828 152.873L437.911 144.494L436.571 144.494L434.146 151.789L434.652 150.99L434.051 150.99L434.557 151.789L432.125 144.494L430.763 144.494L433.685 152.396L433.539 152.865C433.397 153.319 433.21 153.639 432.978 153.825C432.746 154.01 432.45 154.103 432.088 154.103C432 154.103 431.91 154.101 431.817 154.096C431.725 154.091 431.639 154.081 431.561 154.066L431.561 155.114C431.649 155.128 431.744 155.139 431.847 155.147C431.949 155.154 432.042 155.158 432.125 155.158Z" fill-rule="evenodd"/>
</g>
<path d="M370 138.107" fill="#000000" fill-rule="evenodd" opacity="1" stroke="none"/>
<path d="M370 158.107" fill="#000000" fill-rule="evenodd" opacity="1" stroke="none"/>
</g>
</svg>
